<svg viewBox="0 0 450 450" fill="none" xmlns="http://www.w3.org/2000/svg">
    <path d="M58.2124 401.001C58.1396 405.004 58.1032 407.005 59.3578 407.924C60.6124 408.843 62.4998 408.209 66.2745 406.941L98.4539 396.126C108.369 392.794 113.326 391.128 116.149 387.182C118.972 383.236 118.947 378.006 118.897 367.546L118 179.221C118 179.221 126.5 81.2213 226 81.2213C325.5 81.2213 333.872 179.221 333.872 179.221V242.136C333.872 246.152 333.872 248.16 335.19 249.053C336.508 249.945 338.372 249.199 342.101 247.707L389.486 228.744C390.704 228.257 391.312 228.014 391.656 227.506C392 226.998 392 226.342 392 225.031V192.221C378 -46.2787 78 -17.7786 58 176.221C59.1234 324.517 58.564 381.658 58.2124 401.001Z"
          fill="currentColor"/>
    <path d="M136.083 338.301C134.117 337.54 132 338.991 132 341.099V376.755C132 385.144 137.236 392.642 145.112 395.531L198.773 415.216C219.829 422.94 243.01 422.524 263.775 414.05L373.335 369.338C384.623 364.732 392 353.753 392 341.562V314.673C392 312.545 389.846 311.094 387.874 311.892L264.528 361.845C243.311 370.438 219.616 370.623 198.267 362.362L136.083 338.301Z"
          fill="currentColor"/>
    <path d="M136.083 270.301C134.117 269.54 132 270.991 132 273.099V308.755C132 317.144 137.236 324.642 145.112 327.531L198.773 347.216C219.829 354.94 243.01 354.524 263.775 346.05L373.335 301.338C384.623 296.732 392 285.753 392 273.562V246.673C392 244.545 389.846 243.094 387.874 243.892L264.528 293.845C243.311 302.438 219.616 302.623 198.267 294.362L136.083 270.301Z"
          fill="currentColor"/>
</svg>
