<svg viewBox="0 0 450 450" fill="none" xmlns="http://www.w3.org/2000/svg">
    <path d="M58.123 405.38C58.0745 407.483 60.1425 409.001 62.1373 408.331L108.727 392.674C114.859 390.613 118.979 384.853 118.948 378.384L118 179.221C118 179.221 126.5 81.2213 226 81.2213C325.5 81.2213 333.872 179.221 333.872 179.221V246.726C333.872 248.806 335.935 250.254 337.891 249.548L390.679 230.477C391.472 230.191 392 229.439 392 228.596V192.221C378 -46.2787 78 -17.7786 58 176.221C59.2256 337.999 58.4484 391.294 58.123 405.38Z" fill="currentColor"/>
    <path d="M136.083 338.301C134.117 337.54 132 338.991 132 341.099V376.755C132 385.144 137.236 392.642 145.112 395.531L198.773 415.216C219.829 422.94 243.01 422.524 263.775 414.05L373.335 369.338C384.623 364.732 392 353.753 392 341.562V314.673C392 312.545 389.846 311.094 387.874 311.892L264.528 361.845C243.311 370.438 219.616 370.623 198.267 362.362L136.083 338.301Z" fill="currentColor"/>
    <path d="M136.083 270.301C134.117 269.54 132 270.991 132 273.099V308.755C132 317.144 137.236 324.642 145.112 327.531L198.773 347.216C219.829 354.94 243.01 354.524 263.775 346.05L373.335 301.338C384.623 296.732 392 285.753 392 273.562V246.673C392 244.545 389.846 243.094 387.874 243.892L264.528 293.845C243.311 302.438 219.616 302.623 198.267 294.362L136.083 270.301Z" fill="currentColor"/>
</svg>
